<?xml version="1.0" encoding="utf-8"?>
<!-- Generator: Adobe Illustrator 26.0.2, SVG Export Plug-In . SVG Version: 6.00 Build 0)  -->
<svg version="1.1" id="Layer_1" xmlns="http://www.w3.org/2000/svg" xmlns:xlink="http://www.w3.org/1999/xlink" x="0px" y="0px"
	 viewBox="0 0 512 512" style="enable-background:new 0 0 512 512;" xml:space="preserve">
<style type="text/css">
	.st0{fill:#DFE3E8;}
</style>
<g>
	<g>
		<path class="st0" d="M256,0C114.8,0,0,114.8,0,256c0,141.2,114.8,256,256,256s256-114.8,256-256C512,114.8,397.2,0,256,0z
			 M256,493C125.3,493,19,386.7,19,256C19,125.3,125.3,19,256,19s237,106.3,237,237C493,386.7,386.7,493,256,493z"/>
	</g>
</g>
<g>
	<g>
		<path class="st0" d="M398.2,246.5v19h18.8c-2.5,83-71.7,151.7-156.3,151.7c-86.3,0-156.4-70.2-156.4-156.4c0-5.2-4.2-9.5-9.5-9.5
			c-5.2,0-9.5,4.2-9.5,9.5c0,96.7,78.7,175.4,175.4,175.4c95.1,0,172.8-75.9,175.3-170.7h19.1v-19L398.2,246.5L398.2,246.5z"/>
	</g>
</g>
<g>
	<g>
		<path class="st0" d="M180.1,170.7c-5.2,0-9.5,4.2-9.5,9.5V237c0,5.2,4.2,9.5,9.5,9.5c5.2,0,9.5-4.2,9.5-9.5v-56.9
			C189.6,174.9,185.4,170.7,180.1,170.7z"/>
	</g>
</g>
<g>
	<g>
		<path class="st0" d="M265.5,170.7c-5.2,0-9.5,4.2-9.5,9.5V237c0,5.2,4.2,9.5,9.5,9.5s9.5-4.2,9.5-9.5v-56.9
			C275,174.9,270.7,170.7,265.5,170.7z"/>
	</g>
</g>
</svg>
